<svg width="1440" height="500" viewBox="0 0 1440 500" fill="none" xmlns="http://www.w3.org/2000/svg">
<path d="M0 500H1440V7.08579C1420.73 7.55112 1402.22 8.2822 1384.63 9.29917C1354.4 11.0464 1322.79 12.276 1289 12.5725C1245.6 12.9526 1202.03 12.9441 1158.61 12.7066C1105.74 12.4178 1054.22 11.3355 1005.88 8.66428C967.569 6.54746 928.274 4.67466 888.618 2.91074C851.731 1.26999 813.731 0.238133 773.916 0.0562482C692.285 -0.315822 613.069 1.18808 534.67 3.67563C516.342 4.25705 498.106 4.8823 479.869 5.50754L479.849 5.50827C416.741 7.67197 353.626 9.83579 286.66 10.1886C280.977 10.2186 275.295 10.2497 269.615 10.2807C213.638 10.5874 157.797 10.8932 101.884 10.079C90.8828 9.9188 79.9565 9.70005 69.0315 9.4813C51.1787 9.12388 33.3289 8.76658 15.1609 8.66465C13.678 8.66416 12.1938 8.66135 10.7097 8.65842C7.13745 8.65159 3.56445 8.64475 0.00952148 8.67014C0.00634766 8.67014 0.00317383 8.67026 0 8.67026V500Z" fill="#F5F7FA"/>
</svg>
