<svg height="44" viewBox="0 0 44 44" width="44" xmlns="http://www.w3.org/2000/svg"><g fill="none" fill-rule="evenodd"><circle cx="22" cy="22" fill="#282B2B" r="10"/><g stroke="#282B2B" stroke-linecap="round" stroke-width="2"><path d="m22 1v7"/><path d="m34.3743687 6.12563133v6.99999997" transform="matrix(.70710678 .70710678 -.70710678 .70710678 16.874369 -21.487067)"/><path d="m39.5 18.5v7" transform="matrix(0 1 -1 0 61.5 -17.5)"/><path d="m34.3743687 30.8743687v7" transform="matrix(-.70710678 .70710678 -.70710678 -.70710678 82.987068 34.374369)"/><path d="m22 36v7" transform="matrix(-1 0 0 -1 44 79)"/><path d="m9.62563133 30.8743687v7" transform="matrix(-.70710678 -.70710678 .70710678 -.70710678 -7.874369 65.487067)"/><path d="m4.5 18.5v7" transform="matrix(0 -1 1 0 -17.5 26.5)"/><path d="m9.62563133 6.12563133v6.99999997" transform="matrix(.70710678 -.70710678 .70710678 .70710678 -3.987067 9.625631)"/></g></g></svg>